<?xml version="1.0" encoding="UTF-8"?>
<svg width="110px" height="21px" viewBox="0 0 110 21" version="1.1" xmlns="http://www.w3.org/2000/svg" xmlns:xlink="http://www.w3.org/1999/xlink">
    <!-- Generator: Sketch 54.1 (76490) - https://sketchapp.com -->
    <title>slidesgo</title>
    <desc>Created with Sketch.</desc>
    <g id="Page-1" stroke="none" stroke-width="1" fill="none" fill-rule="evenodd">
        <g id="SlidesGo_FI_1_en" transform="translate(-374.000000, -334.000000)" fill="#869FB2" fill-rule="nonzero">
            <g id="Group-2" transform="translate(374.000000, 334.000000)">
                <g id="slidesgo" transform="translate(0.000000, 0.000000)">
                    <path d="M39.8741818,16.1059002 C38.1732486,16.1059002 36.7306849,15.589161 35.6756757,14.4695594 L36.5153769,13.3068961 C37.2043625,14.1035358 38.5177414,14.7925214 39.9387742,14.7925214 C41.5320535,14.7925214 42.3932855,14.0389433 42.3932855,13.0054649 C42.3932855,10.4863612 35.9555761,12.0365789 35.9555761,8.18256553 C35.9555761,6.56775547 37.3550781,5.18978422 39.8311202,5.18978422 C41.5966459,5.18978422 42.8454323,5.85723905 43.6851335,6.69694028 L42.9315555,7.81654192 C42.3071623,7.06296389 41.1660299,6.50316307 39.8311202,6.50316307 C38.4100874,6.50316307 37.5273245,7.2136795 37.5273245,8.13950393 C37.5273245,10.4217688 43.965034,8.91461276 43.965034,12.9624033 C43.965034,14.7063982 42.5655319,16.1059002 39.8741818,16.1059002 Z M47.6245606,15.8475306 L46.0097505,15.8475306 L46.0097505,1.48648649 L47.6245606,1.48648649 L47.6245606,15.8475306 Z M51.0687792,3.96252858 C50.4874476,3.96252858 49.9922391,3.48885096 49.9922391,2.88598854 C49.9922391,2.28312612 50.4874476,1.7879177 51.0687792,1.7879177 C51.6716416,1.7879177 52.16685,2.28312612 52.16685,2.88598854 C52.16685,3.48885096 51.6716416,3.96252858 51.0687792,3.96252858 Z M51.8869496,15.8475306 L50.2721396,15.8475306 L50.2721396,5.44815383 L51.8869496,5.44815383 L51.8869496,15.8475306 Z M63.6851189,15.8475306 L62.0703089,15.8475306 L62.0703089,14.297313 C61.2952,15.3523222 60.0248828,16.1059002 58.5607883,16.1059002 C55.8479074,16.1059002 53.9316662,14.0389433 53.9316662,10.6586076 C53.9316662,7.3428643 55.8263766,5.18978422 58.5607883,5.18978422 C59.9602904,5.18978422 61.2306076,5.87876985 62.0703089,7.01990229 L62.0703089,1.48648649 L63.6851189,1.48648649 L63.6851189,15.8475306 Z M58.9483428,14.6633365 C60.2401908,14.6633365 61.4889772,13.9312894 62.0703089,13.0269957 L62.0703089,8.31175034 C61.4889772,7.4074567 60.2401908,6.63234788 58.9483428,6.63234788 C56.859855,6.63234788 55.6110686,8.35481194 55.6110686,10.6586076 C55.6110686,12.9624033 56.859855,14.6633365 58.9483428,14.6633365 Z M71.0264125,16.1059002 C67.9475079,16.1059002 65.7298355,13.8882277 65.7298355,10.6370769 C65.7298355,7.62276471 67.8829155,5.18978422 70.8541661,5.18978422 C73.997663,5.18978422 75.8493118,7.64429551 75.8493118,10.7662616 L75.8493118,11.1753468 L67.4307687,11.1753468 C67.5599535,13.1346497 68.9379247,14.7709906 71.1771281,14.7709906 C72.3613221,14.7709906 73.5670469,14.297313 74.3852174,13.4576117 L75.1603262,14.5126209 C74.1268477,15.5460994 72.7273457,16.1059002 71.0264125,16.1059002 Z M74.2560325,9.99115276 C74.2345017,8.44093514 73.2010234,6.52469387 70.8326352,6.52469387 C68.6149627,6.52469387 67.5168919,8.39787354 67.4307687,9.99115276 L74.2560325,9.99115276 Z M81.1667101,16.1059002 C79.4657768,16.1059002 78.0232132,15.589161 76.9682039,14.4695594 L77.8079052,13.3068961 C78.4968908,14.1035358 79.8102696,14.7925214 81.2313025,14.7925214 C82.8245818,14.7925214 83.6858138,14.0389433 83.6858138,13.0054649 C83.6858138,10.4863612 77.2481043,12.0365789 77.2481043,8.18256553 C77.2481043,6.56775547 78.6476064,5.18978422 81.1236485,5.18978422 C82.8891741,5.18978422 84.1379606,5.85723905 84.9776619,6.69694028 L84.2240838,7.81654192 C83.5996906,7.06296389 82.4585581,6.50316307 81.1236485,6.50316307 C79.7026156,6.50316307 78.8198528,7.2136795 78.8198528,8.13950393 C78.8198528,10.4217688 85.2575622,8.91461276 85.2575622,12.9624033 C85.2575622,14.7063982 83.8580601,16.1059002 81.1667101,16.1059002 Z"></path>
                    <path d="M92.2479164,20.0675676 C90.4937726,20.0675676 89.1411798,19.6672948 87.8519899,18.5507446 L89.0566428,16.612582 C89.880879,17.5184624 90.9587263,17.8766011 92.2479164,17.8766011 C93.5371063,17.8766011 95.0587732,17.3077925 95.0587732,15.3064289 L95.0587732,14.2741466 C94.2556712,15.2853619 93.1566896,15.8752375 91.9097681,15.8752375 C89.3525225,15.8752375 87.4081703,14.0845437 87.4081703,10.6927591 C87.4081703,7.3641754 89.3313882,5.51028069 91.9097681,5.51028069 C93.1355554,5.51028069 94.234537,6.03695532 95.0587732,7.06923761 L95.0587732,5.76308451 L97.7639588,5.76308451 L97.7639588,15.2432279 C97.7639588,19.1195532 94.7628935,20.0675676 92.2479164,20.0675676 Z M92.7551386,13.4946681 C93.6427776,13.4946681 94.6149537,12.9890605 95.0587732,12.335984 L95.0587732,9.04953426 C94.6149537,8.37539069 93.6427776,7.89085004 92.7551386,7.89085004 C91.2334718,7.89085004 90.1767587,8.9441993 90.1767587,10.6927591 C90.1767587,12.4413189 91.2334718,13.4946681 92.7551386,13.4946681 Z M104.589629,16.1912423 C101.229281,16.1912423 99.2003921,13.7474719 99.2003921,10.840228 C99.2003921,7.95405099 101.229281,5.51028069 104.589629,5.51028069 C107.971111,5.51028069 110,7.95405099 110,10.840228 C110,13.7474719 107.971111,16.1912423 104.589629,16.1912423 Z M104.589629,13.810673 C106.259236,13.810673 107.210277,12.4413189 107.210277,10.840228 C107.210277,9.2602041 106.259236,7.89085004 104.589629,7.89085004 C102.920022,7.89085004 101.990115,9.2602041 101.990115,10.840228 C101.990115,12.4413189 102.920022,13.810673 104.589629,13.810673 Z"></path>
                    <polygon id="Combined-Shape" points="2.01206564 4.01351351 2.01206564 16.0540541 4.03474904 16.0540541 4.03474904 18.0608108 0 18.0608108 0 16.0540541 0.00530888031 16.0540541 0.00530888031 4.01351351 0 4.01351351 0 2.00675676 4.03474904 2.00675676 4.03474904 4.01351351"></polygon>
                    <polygon id="Combined-Shape" transform="translate(26.225868, 10.033784) scale(-1, 1) translate(-26.225868, -10.033784) " points="26.2205594 4.01351351 26.2205594 16.0540541 28.2432428 16.0540541 28.2432428 18.0608108 24.2084938 18.0608108 24.2084938 16.0540541 24.2138026 16.0540541 24.2138026 4.01351351 24.2084938 4.01351351 24.2084938 2.00675676 28.2432428 2.00675676 28.2432428 4.01351351"></polygon>
                    <path d="M8.0694981,2.00675676 L8.0694981,18.0608108 L20.1737451,18.0608108 L20.1737451,2.00675676 L8.0694981,2.00675676 Z M6.05212355,0 L22.1911197,0 L22.1911197,20.0675676 L6.05212355,20.0675676 L6.05212355,0 Z" id="Rectangle"></path>
                </g>
            </g>
        </g>
    </g>
</svg>